<svg width="39" height="26" viewBox="0 0 39 26" fill="none" xmlns="http://www.w3.org/2000/svg">
<path d="M17.4182 0C13.8998 0 11.3922 1.066 9.58992 2.86C7.83315 4.61175 6.86457 6.94525 6.16739 9.2495L5.03304 13.0032H1.21885C0.895592 13.0032 0.585572 13.1317 0.356993 13.3602C0.128414 13.5888 0 13.8988 0 14.222C0 16.4044 1.23998 18.2569 3.04225 19.2595L2.08667 21.5865C1.88723 22.0718 1.81027 22.5988 1.86259 23.1208C1.9149 23.6429 2.09489 24.1441 2.38666 24.5802C2.67844 25.0163 3.07305 25.3739 3.5357 25.6215C3.99834 25.8691 4.5148 25.9991 5.03955 26H8.60509C9.84345 26 10.9697 25.2834 11.4962 24.1637L12.6436 21.7197C15.8451 22.1634 19.0937 22.1682 22.2969 21.736L23.4361 24.1621C23.6944 24.7108 24.1033 25.1749 24.6151 25.5003C25.1269 25.8257 25.7207 25.9989 26.3272 26H29.857C30.3822 26.0003 30.8993 25.8711 31.3626 25.6238C31.8259 25.3766 32.2211 25.0188 32.5131 24.5824C32.8051 24.1459 32.985 23.6442 33.0367 23.1216C33.0885 22.599 33.0106 22.0718 32.8099 21.5865L31.9518 19.5H35.7497C37.3944 19.5 39 18.2276 39 16.4353V14.625C39 11.8544 36.5948 9.75488 33.8288 9.75488H29.0347L28.8835 9.25112C28.1798 6.92412 27.1544 4.59387 25.3424 2.84862C23.4913 1.06275 20.9382 0 17.4182 0ZM31.2481 17.0625L29.7741 12.1907H33.8288C35.4296 12.1907 36.5623 13.3737 36.5623 14.6234V16.4336C36.5623 16.6546 36.286 17.0609 35.7497 17.0609L31.2481 17.0625ZM24.7882 21.3086C26.3916 20.9737 27.9701 20.5291 29.5125 19.9778L30.5558 22.5127C30.6032 22.6279 30.6215 22.7529 30.6093 22.8768C30.597 23.0008 30.5545 23.1198 30.4855 23.2234C30.4165 23.3271 30.3231 23.4122 30.2135 23.4713C30.1039 23.5304 29.9815 23.5617 29.857 23.5625H26.3272C26.1838 23.5615 26.0435 23.5201 25.9225 23.4431C25.8015 23.366 25.7047 23.2565 25.643 23.127L24.7882 21.3086ZM5.73348 20.046C7.18852 20.5562 8.66197 20.969 10.1538 21.2842L9.28927 23.127C9.22775 23.2563 9.13114 23.3656 9.01045 23.4426C8.88977 23.5196 8.74987 23.5612 8.60672 23.5625H5.03792C4.9136 23.5616 4.79139 23.5303 4.68198 23.4713C4.57257 23.4123 4.47931 23.3273 4.41035 23.2239C4.34139 23.1204 4.29883 23.0017 4.28642 22.878C4.274 22.7543 4.29209 22.6294 4.33911 22.5144L5.36782 20.0119C5.48808 20.027 5.60943 20.0384 5.73185 20.046M4.29523 15.4391L3.85482 16.8967C3.33906 16.5268 2.93441 16.0227 2.68472 15.4391H4.29523Z" fill="#7EBCE8"/>
</svg>
