<svg width="145" height="114" viewBox="0 0 145 114" fill="none" xmlns="http://www.w3.org/2000/svg">
<path d="M72.4999 56.8205L44.4141 28.7422C46.2358 26.9211 47.5802 24.6787 48.3284 22.2139C49.0765 19.749 49.2053 17.1376 48.7032 14.6111C48.2011 12.0846 47.0838 9.7209 45.4501 7.72937C43.8164 5.73784 41.7167 4.17994 39.3371 3.19366C36.9574 2.20739 34.3714 1.82319 31.8078 2.07507C29.2443 2.32695 26.7824 3.20714 24.6402 4.63769C22.4981 6.06825 20.7418 8.00501 19.5269 10.2764C18.312 12.5478 17.676 15.0839 17.6753 17.6598C15.0987 17.6579 12.5615 18.2917 10.2885 19.5049C8.01542 20.7181 6.07674 22.4734 4.64421 24.615C3.21168 26.7566 2.32958 29.2185 2.07603 31.7826C1.82249 34.3466 2.20532 36.9337 3.19066 39.3145C4.17599 41.6952 5.73336 43.7961 7.72479 45.431C9.71622 47.0659 12.0802 48.1844 14.6072 48.6872C17.1342 49.19 19.7463 49.0617 22.2118 48.3137C24.6774 47.5656 26.9204 46.2209 28.742 44.3987L56.8357 72.4843M2.01115 111.645H142.989C141.618 98.5578 142.628 85.4468 127.325 72.4847H17.6753C7.23252 80.3168 2.01115 93.3704 2.01115 111.645Z" fill="#CBEEB8"/>
<path d="M88.1641 72.4843L116.258 44.3984C118.079 46.2206 120.322 47.5653 122.788 48.3134C125.254 49.0614 127.866 49.1897 130.393 48.6869C132.92 48.184 135.284 47.0656 137.275 45.4307C139.266 43.7958 140.824 41.6949 141.809 39.3142C142.795 36.9335 143.177 34.3465 142.924 31.7824C142.67 29.2184 141.788 26.7565 140.356 24.6148C138.923 22.4732 136.984 20.718 134.711 19.5048C132.438 18.2916 129.901 17.6579 127.325 17.6597C127.324 15.0838 126.688 12.5478 125.473 10.2764C124.258 8.005 122.502 6.06825 120.36 4.6377C118.217 3.20714 115.756 2.32695 113.192 2.07507C110.628 1.82319 108.042 2.2074 105.663 3.19368C103.283 4.17995 101.183 5.73785 99.5497 7.72938C97.916 9.7209 96.7986 12.0846 96.2966 14.6111C95.7945 17.1376 95.9232 19.7489 96.6714 22.2138C97.4196 24.6786 98.764 26.9209 100.586 28.7421L56.8357 72.4843L28.742 44.3987C26.9204 46.2209 24.6774 47.5656 22.2118 48.3137C19.7463 49.0617 17.1342 49.19 14.6072 48.6872C12.0802 48.1844 9.71622 47.0659 7.72479 45.431C5.73336 43.7961 4.17599 41.6952 3.19066 39.3145C2.20532 36.9337 1.82249 34.3466 2.07603 31.7826C2.32958 29.2185 3.21168 26.7566 4.64421 24.615C6.07674 22.4734 8.01542 20.7181 10.2885 19.5049C12.5615 18.2917 15.0987 17.6579 17.6753 17.6598C17.676 15.0839 18.312 12.5478 19.5269 10.2764C20.7418 8.00501 22.4981 6.06825 24.6402 4.63769C26.7824 3.20714 29.2443 2.32695 31.8078 2.07507C34.3714 1.82319 36.9574 2.20739 39.3371 3.19366C41.7167 4.17994 43.8164 5.73784 45.4501 7.72937C47.0838 9.7209 48.2011 12.0846 48.7032 14.6111C49.2053 17.1376 49.0765 19.749 48.3284 22.2139C47.5802 24.6787 46.2358 26.9211 44.4141 28.7422L72.4999 56.8205M2.01115 111.645H142.989C141.618 98.5578 142.628 85.4468 127.325 72.4847H17.6753C7.23252 80.3168 2.01115 93.3704 2.01115 111.645Z" stroke="black" stroke-width="4" stroke-linecap="round" stroke-linejoin="round"/>
</svg>
