<svg width="35" height="38" viewBox="0 0 35 38" fill="none" xmlns="http://www.w3.org/2000/svg">
<path d="M31.9453 2.9375H27.1719V1.10156C27.1719 0.80941 27.0558 0.529223 26.8492 0.32264C26.6427 0.116057 26.3625 0 26.0703 0C25.7782 0 25.498 0.116057 25.2914 0.32264C25.0848 0.529223 24.9688 0.80941 24.9688 1.10156V2.9375H9.54688V1.10156C9.54688 0.80941 9.43082 0.529223 9.22423 0.32264C9.01765 0.116057 8.73747 0 8.44531 0C8.15316 0 7.87297 0.116057 7.66639 0.32264C7.45981 0.529223 7.34375 0.80941 7.34375 1.10156V2.9375H2.57031C1.88862 2.9375 1.23485 3.2083 0.752827 3.69033C0.2708 4.17235 0 4.82612 0 5.50781V34.8828C0 35.5645 0.2708 36.2183 0.752827 36.7003C1.23485 37.1823 1.88862 37.4531 2.57031 37.4531H31.9453C32.627 37.4531 33.2808 37.1823 33.7628 36.7003C34.2448 36.2183 34.5156 35.5645 34.5156 34.8828V5.50781C34.5156 4.82612 34.2448 4.17235 33.7628 3.69033C33.2808 3.2083 32.627 2.9375 31.9453 2.9375ZM2.57031 5.14062H7.34375V6.97656C7.34375 7.26872 7.45981 7.5489 7.66639 7.75549C7.87297 7.96207 8.15316 8.07812 8.44531 8.07812C8.73747 8.07812 9.01765 7.96207 9.22423 7.75549C9.43082 7.5489 9.54688 7.26872 9.54688 6.97656V5.14062H24.9688V6.97656C24.9688 7.26872 25.0848 7.5489 25.2914 7.75549C25.498 7.96207 25.7782 8.07812 26.0703 8.07812C26.3625 8.07812 26.6427 7.96207 26.8492 7.75549C27.0558 7.5489 27.1719 7.26872 27.1719 6.97656V5.14062H31.9453C32.0427 5.14062 32.1361 5.17931 32.205 5.24817C32.2738 5.31703 32.3125 5.41043 32.3125 5.50781V11.75H2.20312V5.50781C2.20312 5.41043 2.24181 5.31703 2.31067 5.24817C2.37953 5.17931 2.47293 5.14062 2.57031 5.14062ZM31.9453 35.25H2.57031C2.47293 35.25 2.37953 35.2113 2.31067 35.1425C2.24181 35.0736 2.20312 34.9802 2.20312 34.8828V13.9531H32.3125V34.8828C32.3125 34.9802 32.2738 35.0736 32.205 35.1425C32.1361 35.2113 32.0427 35.25 31.9453 35.25ZM13.9531 18.7266V30.4766C13.9531 30.7687 13.8371 31.0489 13.6305 31.2555C13.4239 31.4621 13.1437 31.5781 12.8516 31.5781C12.5594 31.5781 12.2792 31.4621 12.0726 31.2555C11.8661 31.0489 11.75 30.7687 11.75 30.4766V20.5093L10.4061 21.1812C10.2766 21.2458 10.1357 21.2843 9.99135 21.2945C9.84701 21.3046 9.70208 21.2862 9.56485 21.2404C9.42761 21.1945 9.30075 21.1221 9.1915 21.0272C9.08226 20.9323 8.99278 20.8168 8.92816 20.6873C8.86355 20.5579 8.82507 20.4169 8.81492 20.2726C8.80477 20.1283 8.82315 19.9833 8.86901 19.8461C8.91487 19.7089 8.98731 19.582 9.0822 19.4728C9.17709 19.3635 9.29256 19.274 9.42203 19.2094L12.3595 17.7407C12.5275 17.6568 12.7141 17.6173 12.9017 17.6258C13.0892 17.6343 13.2715 17.6907 13.4311 17.7895C13.5908 17.8882 13.7225 18.0262 13.8139 18.1902C13.9053 18.3542 13.9532 18.5388 13.9531 18.7266ZM24.8898 24.0967L20.9297 29.375H24.6016C24.8937 29.375 25.1739 29.4911 25.3805 29.6976C25.5871 29.9042 25.7031 30.1844 25.7031 30.4766C25.7031 30.7687 25.5871 31.0489 25.3805 31.2555C25.1739 31.4621 24.8937 31.5781 24.6016 31.5781H18.7266C18.522 31.5781 18.3215 31.5212 18.1474 31.4136C17.9734 31.3061 17.8328 31.1522 17.7413 30.9692C17.6498 30.7862 17.6111 30.5814 17.6295 30.3776C17.6478 30.1739 17.7226 29.9793 17.8453 29.8156L23.1328 22.7656C23.2851 22.5656 23.3946 22.3364 23.4547 22.0922C23.5147 21.8481 23.524 21.5942 23.4819 21.3464C23.4398 21.0985 23.3472 20.8619 23.21 20.6513C23.0727 20.4407 22.8936 20.2605 22.6839 20.1219C22.4741 19.9833 22.2381 19.8893 21.9905 19.8457C21.7429 19.802 21.489 19.8097 21.2445 19.8682C21 19.9268 20.7701 20.0349 20.5691 20.1859C20.3681 20.3369 20.2003 20.5276 20.076 20.7461C20.0103 20.8831 19.917 21.005 19.8019 21.1041C19.6868 21.2033 19.5525 21.2776 19.4073 21.3224C19.2622 21.3671 19.1093 21.3814 18.9584 21.3642C18.8075 21.3471 18.6617 21.2989 18.5303 21.2227C18.3989 21.1465 18.2846 21.044 18.1947 20.9215C18.1049 20.7991 18.0413 20.6593 18.008 20.5111C17.9747 20.3629 17.9724 20.2094 18.0013 20.0603C18.0302 19.9112 18.0896 19.7696 18.1758 19.6445C18.4526 19.1693 18.8236 18.7555 19.266 18.4287C19.7084 18.1019 20.2129 17.8689 20.7485 17.744C21.2842 17.6191 21.8397 17.6049 22.381 17.7022C22.9224 17.7996 23.4381 18.0065 23.8966 18.3103C24.3551 18.6141 24.7468 19.0083 25.0476 19.4688C25.3483 19.9293 25.5519 20.4463 25.6457 20.9883C25.7396 21.5303 25.7218 22.0857 25.5934 22.6205C25.465 23.1553 25.2287 23.6583 24.899 24.0985L24.8898 24.0967Z" fill="#7EBCE8"/>
</svg>
