<svg width="28" height="27" viewBox="0 0 28 27" fill="none" xmlns="http://www.w3.org/2000/svg">
<path d="M0.732876 11.5449C0.573431 11.3786 0.493708 11.181 0.493708 10.9521C0.493708 10.7232 0.573431 10.5148 0.732876 10.3269L4.95587 6.10217L2.59496 3.772L1.49138 4.87558C1.30346 5.06464 1.09504 5.15917 0.866125 5.15917C0.637208 5.15917 0.439612 5.06464 0.273334 4.87558C0.0911117 4.71614 0 4.52025 0 4.28792C0 4.05558 0.0911117 3.84888 0.273334 3.66779L3.69 0.283584C3.85628 0.094528 4.05387 0 4.28279 0C4.51171 0 4.72013 0.094528 4.90804 0.283584C5.06749 0.443028 5.14721 0.638917 5.14721 0.87125C5.14721 1.10358 5.06749 1.29947 4.90804 1.45892L3.772 2.59667L6.13292 4.92512L10.3576 0.700417C10.5467 0.5125 10.7557 0.418542 10.9846 0.418542C11.2135 0.418542 11.4111 0.5125 11.5774 0.700417C11.7653 0.866695 11.8592 1.06429 11.8592 1.29321C11.8592 1.52212 11.7653 1.73054 11.5774 1.91846L10.6207 2.86487L22.234 14.4781C22.7795 15.0248 23.0523 15.6819 23.0523 16.4495C23.0523 17.2172 22.7795 17.8623 22.234 18.3851L20.9408 19.6903L27.8288 26.5697H25.391L19.721 20.898L18.4261 22.2032C17.9022 22.7271 17.257 22.989 16.4905 22.989C15.7241 22.989 15.0675 22.7271 14.5208 22.2032L2.90588 10.59L1.94921 11.5466C1.76129 11.7277 1.55857 11.8183 1.34104 11.8183C1.12238 11.8183 0.919083 11.7271 0.731167 11.5449M4.08121 9.41292L15.6945 21.0262C15.9143 21.2232 16.1665 21.3217 16.4513 21.3217C16.736 21.3217 16.9877 21.2232 17.2063 21.0262L21.0142 17.1773C21.2329 16.9791 21.3422 16.7326 21.3422 16.4376C21.3422 16.1415 21.2329 15.8949 21.0142 15.6979L18.5832 13.2242L15.961 15.8465C15.773 16.0287 15.5697 16.121 15.3511 16.1232C15.1324 16.1255 14.9439 16.0469 14.7856 15.8875C14.5966 15.7212 14.502 15.5236 14.502 15.2947C14.502 15.0658 14.5966 14.8574 14.7856 14.6695L17.4062 12.0472L13.8255 8.50067L11.205 11.1213C11.0375 11.2807 10.8394 11.3604 10.6105 11.3604C10.3815 11.3604 10.1731 11.2807 9.98521 11.1213C9.82576 10.9333 9.74604 10.7249 9.74604 10.496C9.74604 10.2671 9.82576 10.0695 9.98521 9.90321L12.6075 7.28092L9.41121 4.08463L4.08121 9.41292ZM4.08121 9.41292L4.29475 9.19938L4.838 8.65783L8.69029 4.80725L9.19937 4.29817L9.41121 4.08463L4.08121 9.41292Z" fill="black"/>
</svg>
