<svg width="32" height="29" viewBox="0 0 32 29" fill="none" xmlns="http://www.w3.org/2000/svg">
<path d="M10.1838 0.0242155C12.0641 -0.249441 14.056 1.82713 14.6296 4.69247C15.2033 7.54172 14.1675 10.0851 12.2872 10.3749C10.4228 10.6646 8.41504 8.58805 7.82545 5.72271C7.23586 2.87346 8.3035 0.330067 10.1838 0.0242155ZM21.5772 0.0242155C23.4734 0.330067 24.5251 2.87346 23.9674 5.72271C23.3619 8.58805 21.37 10.6646 19.4897 10.3749C17.5935 10.0851 16.5577 7.54172 17.1473 4.69247C17.721 1.82713 19.7128 -0.249441 21.5772 0.0242155ZM1.65869 7.42904C3.47525 6.64026 5.94515 8.07294 7.23586 10.568C8.44691 13.1114 8.0326 15.7836 6.23197 16.5724C4.43134 17.3612 1.97738 15.9446 0.718535 13.4173C-0.540314 10.89 -0.0941396 8.20172 1.65869 7.42904ZM30.3413 7.42904C32.0941 8.20172 32.5403 10.89 31.2815 13.4173C30.0226 15.9446 27.5687 17.3612 25.768 16.5724C23.9674 15.7836 23.5531 13.1114 24.7641 10.568C26.0549 8.07294 28.5247 6.64026 30.3413 7.42904ZM27.6802 24.7821C27.7439 26.2952 26.5966 27.9694 25.2262 28.5972C22.3739 29.9172 18.9957 27.1806 15.8247 27.1806C12.6537 27.1806 9.24365 30.0298 6.43913 28.5972C4.84565 27.8084 3.74615 25.7157 3.9533 23.9772C4.24012 21.5787 7.09245 20.2909 8.78154 18.5363C11.0283 16.2665 12.6218 12.0007 15.8247 12.0007C19.0117 12.0007 20.7008 16.2021 22.852 18.5363C24.6207 20.5002 27.5687 22.1582 27.6802 24.7821Z" fill="#EEB8B9"/>
</svg>
