<svg width="32" height="32" viewBox="0 0 32 32" fill="none" xmlns="http://www.w3.org/2000/svg">
<path d="M17.6909 31.9992H14.3118C13.1786 31.9973 12.0924 31.5463 11.2911 30.745C10.4898 29.9437 10.0388 28.8574 10.0369 27.7243V21.9121L4.27671 21.964C3.1432 21.9626 2.0565 21.5118 1.25482 20.7105C0.453143 19.9091 0.00189619 18.8226 0 17.6891V14.31C0.00142231 13.1762 0.45246 12.0893 1.25419 11.2875C2.05592 10.4858 3.14289 10.0348 4.27671 10.0333H10.0889L10.0369 4.27492C10.0388 3.14172 10.4898 2.05548 11.2911 1.25419C12.0924 0.452895 13.1786 0.00189498 14.3118 0H17.6909C18.8241 0.00189498 19.9104 0.452895 20.7116 1.25419C21.5129 2.05548 21.9639 3.14172 21.9658 4.27492V10.0871L27.726 10.0333C28.8599 10.0348 29.9468 10.4858 30.7486 11.2875C31.5503 12.0893 32.0013 13.1762 32.0028 14.31V17.6891C32.0009 18.8226 31.5496 19.9091 30.7479 20.7105C29.9463 21.5118 28.8596 21.9626 27.726 21.964H21.9139L21.964 27.7243C21.9621 28.8571 21.5114 29.9431 20.7105 30.7443C19.9096 31.5456 18.8238 31.9968 17.6909 31.9992ZM4.27671 11.825C3.61807 11.8264 2.98682 12.0887 2.52109 12.5544C2.05536 13.0201 1.79309 13.6514 1.79167 14.31V17.6891C1.79356 18.3475 2.05604 18.9783 2.52172 19.4436C2.9874 19.9089 3.61838 20.171 4.27671 20.1724H10.0889C10.3176 20.1719 10.5441 20.2166 10.7555 20.3038C10.9668 20.391 11.1589 20.5191 11.3207 20.6808C11.4825 20.8424 11.6108 21.0343 11.6983 21.2456C11.7857 21.4569 11.8306 21.6834 11.8304 21.9121V27.7243C11.8323 28.3823 12.0945 29.0128 12.5598 29.4781C13.0251 29.9434 13.6556 30.2056 14.3136 30.2075H17.6927C18.3507 30.2056 18.9813 29.9434 19.4465 29.4781C19.9118 29.0128 20.1741 28.3823 20.176 27.7243V21.9121C20.1757 21.6834 20.2206 21.4569 20.3081 21.2456C20.3955 21.0343 20.5238 20.8424 20.6856 20.6808C20.8474 20.5191 21.0395 20.391 21.2509 20.3038C21.4623 20.2166 21.6888 20.1719 21.9175 20.1724H27.7278C28.3862 20.171 29.0171 19.9089 29.4828 19.4436C29.9485 18.9783 30.211 18.3475 30.2129 17.6891V14.31C30.2115 13.6511 29.9489 13.0196 29.4828 12.5538C29.0167 12.088 28.385 11.8259 27.726 11.825H21.9139C21.6853 11.8255 21.459 11.7809 21.2477 11.6937C21.0364 11.6066 20.8444 11.4787 20.6827 11.3172C20.5209 11.1558 20.3926 10.9641 20.305 10.753C20.2174 10.5419 20.1724 10.3156 20.1724 10.0871V4.27492C20.1705 3.61721 19.9085 2.98695 19.4436 2.52171C18.9787 2.05647 18.3486 1.79403 17.6909 1.79167H14.3118C13.6538 1.79356 13.0233 2.05579 12.558 2.52108C12.0927 2.98637 11.8305 3.6169 11.8286 4.27492V10.0871C11.8286 10.3156 11.7835 10.5419 11.696 10.753C11.6084 10.9641 11.4801 11.1558 11.3183 11.3172C11.1565 11.4787 10.9645 11.6066 10.7533 11.6937C10.542 11.7809 10.3156 11.8255 10.0871 11.825H4.27671Z" fill="black"/>
</svg>
