<svg width="34" height="34" viewBox="0 0 34 34" fill="none" xmlns="http://www.w3.org/2000/svg">
<path fill-rule="evenodd" clip-rule="evenodd" d="M9.375 7.5C9.375 5.51088 10.1652 3.60322 11.5717 2.1967C12.9782 0.790176 14.8859 0 16.875 0C18.8641 0 20.7718 0.790176 22.1783 2.1967C23.5848 3.60322 24.375 5.51088 24.375 7.5C24.375 9.48912 23.5848 11.3968 22.1783 12.8033C20.7718 14.2098 18.8641 15 16.875 15C14.8859 15 12.9782 14.2098 11.5717 12.8033C10.1652 11.3968 9.375 9.48912 9.375 7.5ZM9.375 18.75C6.8886 18.75 4.50403 19.7377 2.74587 21.4959C0.98772 23.254 0 25.6386 0 28.125C0 29.6168 0.592632 31.0476 1.64752 32.1025C2.70242 33.1574 4.13316 33.75 5.625 33.75H28.125C29.6168 33.75 31.0476 33.1574 32.1025 32.1025C33.1574 31.0476 33.75 29.6168 33.75 28.125C33.75 25.6386 32.7623 23.254 31.0041 21.4959C29.246 19.7377 26.8614 18.75 24.375 18.75H9.375Z" fill="#7EBCE8"/>
</svg>
