<svg width="24" height="31" viewBox="0 0 24 31" fill="none" xmlns="http://www.w3.org/2000/svg">
<path d="M5.125 25.625C4.64097 25.625 4.23553 25.461 3.90867 25.133C3.58181 24.805 3.41781 24.3996 3.41667 23.9167C3.41553 23.4338 3.57953 23.0283 3.90867 22.7003C4.23781 22.3723 4.64325 22.2083 5.125 22.2083C5.60675 22.2083 6.01276 22.3723 6.34304 22.7003C6.67332 23.0283 6.83675 23.4338 6.83333 23.9167C6.82992 24.3996 6.66592 24.8056 6.34133 25.1347C6.01675 25.4638 5.61131 25.6273 5.125 25.625ZM11.9583 25.625C11.4743 25.625 11.0689 25.461 10.742 25.133C10.4151 24.805 10.2511 24.3996 10.25 23.9167C10.2489 23.4338 10.4129 23.0283 10.742 22.7003C11.0711 22.3723 11.4766 22.2083 11.9583 22.2083C12.4401 22.2083 12.8461 22.3723 13.1764 22.7003C13.5067 23.0283 13.6701 23.4338 13.6667 23.9167C13.6632 24.3996 13.4992 24.8056 13.1747 25.1347C12.8501 25.4638 12.4446 25.6273 11.9583 25.625ZM18.7917 25.625C18.3076 25.625 17.9022 25.461 17.5753 25.133C17.2485 24.805 17.0845 24.3996 17.0833 23.9167C17.0822 23.4338 17.2462 23.0283 17.5753 22.7003C17.9045 22.3723 18.3099 22.2083 18.7917 22.2083C19.2734 22.2083 19.6794 22.3723 20.0097 22.7003C20.34 23.0283 20.5034 23.4338 20.5 23.9167C20.4966 24.3996 20.3326 24.8056 20.008 25.1347C19.6834 25.4638 19.278 25.6273 18.7917 25.625ZM0 18.7917V15.375C0 12.3569 0.968055 9.7375 2.90417 7.51667C4.84028 5.29583 7.28889 3.98611 10.25 3.5875V-1.75834e-06H13.6667V3.5875C16.6278 3.98611 19.0764 5.29583 21.0125 7.51667C22.9486 9.7375 23.9167 12.3569 23.9167 15.375V18.7917H0ZM1.91663 17H21.9166C22.4166 13.5 21.0444 9.6263 18.9166 7.5C17.2504 5.83494 14.3211 5.01851 11.959 5.01737C9.59695 5.01624 8 5.33284 5.41663 7.5C2.83325 9.66716 1.91663 14.6391 1.91663 17ZM5.125 30.75C4.64097 30.75 4.23553 30.586 3.90867 30.258C3.58181 29.93 3.41781 29.5246 3.41667 29.0417C3.41553 28.5588 3.57953 28.1533 3.90867 27.8253C4.23781 27.4973 4.64325 27.3333 5.125 27.3333C5.60675 27.3333 6.01276 27.4973 6.34304 27.8253C6.67332 28.1533 6.83675 28.5588 6.83333 29.0417C6.82992 29.5246 6.66592 29.9306 6.34133 30.2597C6.01675 30.5888 5.61131 30.7523 5.125 30.75ZM11.9583 30.75C11.4743 30.75 11.0689 30.586 10.742 30.258C10.4151 29.93 10.2511 29.5246 10.25 29.0417C10.2489 28.5588 10.4129 28.1533 10.742 27.8253C11.0711 27.4973 11.4766 27.3333 11.9583 27.3333C12.4401 27.3333 12.8461 27.4973 13.1764 27.8253C13.5067 28.1533 13.6701 28.5588 13.6667 29.0417C13.6632 29.5246 13.4992 29.9306 13.1747 30.2597C12.8501 30.5888 12.4446 30.7523 11.9583 30.75ZM18.7917 30.75C18.3076 30.75 17.9022 30.586 17.5753 30.258C17.2485 29.93 17.0845 29.5246 17.0833 29.0417C17.0822 28.5588 17.2462 28.1533 17.5753 27.8253C17.9045 27.4973 18.3099 27.3333 18.7917 27.3333C19.2734 27.3333 19.6794 27.4973 20.0097 27.8253C20.34 28.1533 20.5034 28.5588 20.5 29.0417C20.4966 29.5246 20.3326 29.9306 20.008 30.2597C19.6834 30.5888 19.278 30.7523 18.7917 30.75Z" fill="black"/>
</svg>
