<svg width="33" height="33" viewBox="0 0 33 33" fill="none" xmlns="http://www.w3.org/2000/svg">
<path d="M21.7562 5.63471V10.9938H27.1589L31.75 6.38125H26.3713V1L21.7562 5.63471Z" fill="#7EBCE8"/>
<path d="M16.375 1C7.88373 1 1 7.88373 1 16.375C1 24.8663 7.88373 31.75 16.375 31.75C24.8663 31.75 31.75 24.8663 31.75 16.375M16.375 8.6875C14.8546 8.6875 13.3683 9.13836 12.1041 9.98308C10.8399 10.8278 9.85453 12.0284 9.27268 13.4331C8.69083 14.8378 8.53859 16.3835 8.83521 17.8748C9.13184 19.366 9.864 20.7358 10.9391 21.8109C12.0142 22.886 13.384 23.6182 14.8752 23.9148C16.3665 24.2114 17.9122 24.0592 19.3169 23.4773C20.7216 22.8955 21.9222 21.9101 22.7669 20.6459C23.6116 19.3817 24.0625 17.8954 24.0625 16.375M16.375 16.375L21.7562 10.9886M21.7562 5.63471V10.9938H27.1589L31.75 6.38125H26.3713V1L21.7562 5.63471Z" stroke="#7EBCE8" stroke-width="2" stroke-linecap="round" stroke-linejoin="round"/>
</svg>
