<svg width="29" height="29" viewBox="0 0 29 29" fill="none" xmlns="http://www.w3.org/2000/svg">
<path d="M14.5005 7.25C15.1613 7.25 15.7844 7.1556 16.3696 6.9668C16.9549 6.77799 17.5402 6.57031 18.1255 6.34375C18.7108 6.11719 19.2914 5.90951 19.8672 5.7207C20.4431 5.5319 21.0708 5.4375 21.7505 5.4375V7.25C21.3351 7.25 20.9387 7.29248 20.5611 7.37744C20.1834 7.4624 19.8153 7.57568 19.4566 7.71729C19.0978 7.85889 18.7297 8.00521 18.3521 8.15625C17.9745 8.30729 17.5921 8.45361 17.2051 8.59521C16.8181 8.73682 16.398 8.84538 15.9448 8.9209C15.4917 8.99642 15.0103 9.04362 14.5005 9.0625C13.9813 9.0625 13.4999 9.02002 13.0562 8.93506C12.6125 8.8501 12.1924 8.73682 11.7959 8.59521C11.3994 8.45361 11.0218 8.30729 10.6631 8.15625C10.3044 8.00521 9.93622 7.85889 9.55861 7.71729C9.18101 7.57568 8.80812 7.46712 8.43996 7.3916C8.07179 7.31608 7.67531 7.26888 7.25051 7.25V5.4375C7.90187 5.4375 8.52492 5.5319 9.11965 5.7207C9.71437 5.90951 10.2997 6.11719 10.8755 6.34375C11.4514 6.57031 12.0366 6.77799 12.6314 6.9668C13.2261 7.1556 13.8491 7.25 14.5005 7.25ZM29.0005 8.19873C29.0005 9.86963 28.8778 11.5688 28.6323 13.2964C28.3869 15.0239 28.0282 16.7373 27.5562 18.4365C27.0842 20.1357 26.4894 21.783 25.772 23.3784C25.0545 24.9738 24.238 26.4795 23.3223 27.8955C23.0957 28.2354 22.8078 28.5044 22.4585 28.7026C22.1092 28.9009 21.7269 29 21.3115 29C20.7923 29 20.3251 28.8537 19.9097 28.561C19.4943 28.2684 19.2064 27.8719 19.0459 27.3716L16.5254 19.8384C16.195 19.8761 15.8599 19.8997 15.52 19.9092C15.1802 19.9186 14.8404 19.9281 14.5005 19.9375C14.1607 19.9375 13.8208 19.9328 13.481 19.9233C13.1411 19.9139 12.806 19.8856 12.4756 19.8384L9.9551 27.3716C9.79461 27.8625 9.50669 28.2542 9.09133 28.5469C8.67596 28.8395 8.20868 28.9906 7.68947 29C7.27411 29 6.89178 28.9009 6.5425 28.7026C6.19321 28.5044 5.90529 28.2354 5.67873 27.8955C4.7536 26.4889 3.93703 24.988 3.22902 23.3926C2.52101 21.7972 1.93101 20.1499 1.459 18.4507C0.986997 16.7515 0.623553 15.0381 0.36867 13.3105C0.113787 11.583 -0.00893438 9.87907 0.00050572 8.19873C0.00050572 7.14144 0.160987 6.12191 0.481951 5.14014C0.802915 4.15837 1.2702 3.28516 1.88381 2.52051C2.49741 1.75586 3.25262 1.14697 4.14943 0.693848C5.04624 0.240723 6.07049 0.0094401 7.22219 0C7.89243 0 8.5202 0.094401 9.10549 0.283203C9.69077 0.472005 10.2761 0.679688 10.8613 0.90625C11.4466 1.13281 12.0272 1.34049 12.603 1.5293C13.1789 1.7181 13.8114 1.8125 14.5005 1.8125C15.1708 1.8125 15.7985 1.7181 16.3838 1.5293C16.9691 1.34049 17.5544 1.13281 18.1397 0.90625C18.725 0.679688 19.3055 0.472005 19.8814 0.283203C20.4572 0.094401 21.0897 0 21.7788 0C22.9305 0 23.9548 0.226562 24.8516 0.679688C25.7484 1.13281 26.5036 1.7417 27.1172 2.50635C27.7308 3.271 28.1981 4.14421 28.5191 5.12598C28.84 6.10775 29.0005 7.132 29.0005 8.19873ZM27.188 8.22705C27.188 7.34912 27.07 6.52311 26.834 5.74902C26.598 4.97493 26.244 4.29525 25.772 3.70996C25.3 3.12467 24.7053 2.66211 23.9878 2.32227C23.2704 1.98242 22.4444 1.8125 21.5098 1.8125C20.9623 1.8125 20.4383 1.9069 19.938 2.0957C19.4377 2.28451 18.909 2.49219 18.3521 2.71875C17.7951 2.94531 17.2098 3.15299 16.5962 3.3418C15.9826 3.5306 15.284 3.625 14.5005 3.625C13.717 3.625 13.0184 3.5306 12.4048 3.3418C11.7912 3.15299 11.2059 2.94531 10.6489 2.71875C10.092 2.49219 9.55389 2.28451 9.03469 2.0957C8.51548 1.9069 7.93963 1.8125 7.30715 1.8125C6.39146 1.8125 5.58905 1.99186 4.89992 2.35059C4.21079 2.70931 3.63967 3.18604 3.18654 3.78076C2.73342 4.37549 2.38885 5.05518 2.15285 5.81982C1.91685 6.58447 1.80357 7.38688 1.81301 8.22705C1.81301 9.15218 1.86493 10.1481 1.96877 11.2148C2.07261 12.2816 2.23309 13.3861 2.45021 14.5283C2.66734 15.6706 2.92694 16.8081 3.22902 17.9409C3.5311 19.0737 3.88511 20.1877 4.29103 21.2827C4.69696 22.3778 5.14536 23.3973 5.63625 24.3413C6.12713 25.2853 6.65578 26.1444 7.22219 26.9185C7.36379 27.0978 7.54315 27.1875 7.76027 27.1875C7.87355 27.1875 8.01987 27.0176 8.19924 26.6777C8.3786 26.3379 8.5674 25.8942 8.76564 25.3467C8.96388 24.7992 9.17629 24.2044 9.40285 23.5625C9.62941 22.9206 9.83237 22.2928 10.0117 21.6792C10.1911 21.0656 10.3657 20.5086 10.5357 20.0083C10.7056 19.508 10.8189 19.1445 10.8755 18.918C10.951 18.6725 11.0926 18.4601 11.3003 18.2808C11.508 18.1014 11.7534 18.007 12.0366 17.9976C12.452 17.9976 12.8626 18.0164 13.2686 18.0542C13.6745 18.092 14.0851 18.1156 14.5005 18.125C14.9159 18.125 15.3265 18.1061 15.7324 18.0684C16.1384 18.0306 16.549 18.007 16.9644 17.9976C17.2381 17.9976 17.4789 18.0872 17.6865 18.2666C17.8942 18.446 18.0405 18.6631 18.1255 18.918C18.201 19.1445 18.3143 19.508 18.4654 20.0083C18.6164 20.5086 18.7863 21.0609 18.9751 21.665C19.1639 22.2692 19.3716 22.9017 19.5982 23.5625C19.8247 24.2233 20.0324 24.818 20.2212 25.3467C20.41 25.8753 20.6035 26.3143 20.8018 26.6636C21 27.0129 21.1463 27.1875 21.2407 27.1875C21.4579 27.1875 21.6372 27.0978 21.7788 26.9185C22.3452 26.1632 22.8739 25.3042 23.3648 24.3413C23.8556 23.3784 24.2993 22.3589 24.6958 21.2827C25.0923 20.2065 25.4463 19.0973 25.7578 17.9551C26.0694 16.8128 26.329 15.6753 26.5366 14.5425C26.7443 13.4097 26.9048 12.3052 27.0181 11.229C27.1314 10.1528 27.188 9.15218 27.188 8.22705Z" fill="black"/>
</svg>
