<svg width="153" height="139" viewBox="0 0 153 139" fill="none" xmlns="http://www.w3.org/2000/svg">
<path d="M100.008 62.1175C99.6329 60.5942 100.704 59.4137 102.074 59.8326C102.516 59.9406 102.9 60.2139 103.146 60.5958C103.392 60.9777 103.481 61.439 103.394 61.8842C103.308 62.3295 103.052 62.7246 102.681 62.9878C102.31 63.2509 101.852 63.362 101.401 63.298C100.635 63.298 100.23 62.9858 100.008 62.1175ZM89.2487 61.4701C88.2004 60.4723 88.4223 59.3832 89.7691 58.6672C90.4654 58.294 90.894 58.3702 91.5674 58.9871C92.6846 59.9773 92.6846 60.6475 91.6133 61.6148C90.542 62.5821 90.343 62.5821 89.2258 61.4929L89.2487 61.4701ZM85.5603 51.1574C84.3206 49.6341 86.1342 47.4406 87.7259 48.4307C87.9807 48.5317 88.2035 48.699 88.3711 48.9151C88.5387 49.1312 88.6448 49.3882 88.6785 49.6591C88.7121 49.93 88.672 50.2049 88.5623 50.4551C88.4526 50.7053 88.2774 50.9215 88.055 51.0812C87.1265 51.9952 86.2949 52.0206 85.5603 51.1574ZM17.7763 138.533C16.4958 137.983 15.3868 137.102 14.5645 135.981C13.7423 134.86 13.2368 133.54 13.1007 132.158C12.1518 127.848 8.36396 109.53 5.87696 97.3893C5.11173 93.7182 5.11173 93.5811 3.63484 93.345C2.65468 93.1189 1.75831 92.6227 1.04837 91.9131C0.0994805 90.9153 0 90.3213 0 87.0081C0 83.9615 0.176002 83.0399 0.918275 82.0498C2.11969 80.4122 2.71656 80.2904 8.79249 80.2904H13.9195L14.7689 77.4342C15.8839 73.779 17.945 70.48 20.7454 67.8679C21.7549 67.039 22.471 65.9099 22.7885 64.6462C23.9517 58.4007 24.8011 55.9482 25.7959 55.9482C28.1911 55.9482 28.566 56.9383 27.5406 60.7313C27.275 61.4622 27.1731 62.242 27.2422 63.0162C28.4909 63.0007 29.7318 62.8162 30.9306 62.4679L34.4124 61.7062L36.1571 53.4957C38.2232 43.5943 38.6441 42.17 39.593 41.4312C43.5242 40.7634 47.521 40.5614 51.5 40.8295H62.6264L63.7972 42.3528L64.968 43.8761L67.6616 42.0481C69.1921 41.0275 70.294 39.885 70.294 39.5423L70.1716 37.9809C69.8706 37.0993 69.343 36.3116 68.6411 35.696C67.2484 34.1727 67.2484 34.1727 62.0142 34.1727C55.3414 34.1727 55.2955 34.0737 55.8158 27.9805C56.0684 25.6956 56.5122 20.4174 56.8106 16.2283C57.4075 7.7055 57.2086 6.71535 54.515 4.80362C53.4999 4.08397 52.2602 3.74842 51.0187 3.85733C49.7773 3.96623 48.6156 4.51244 47.7427 5.39771L45.9979 6.921L46.0974 12.8695C46.174 16.0912 46.4188 20.5468 46.6714 22.6566C47.4015 26.2402 47.4041 29.933 46.679 33.5177C44.96 34.1093 43.1301 34.3122 41.3224 34.1118C34.772 34.1118 33.2492 34.98 32.4075 39.1691C30.5403 48.4155 30.2419 49.2533 28.742 49.2533C26.8749 49.2533 26.6989 48.1184 27.7472 43.1601C29.4154 35.7722 30.0429 34.3098 32.0555 32.5504C34.5308 30.6287 37.6432 29.7067 40.7714 29.9684H43.7099L43.4115 26.4268C42.7534 18.2467 42.3095 8.48237 42.5544 7.3399C43.0698 4.953 44.5082 2.86385 46.5588 1.52411C48.6093 0.184377 51.1072 -0.2983 53.5125 0.180432C55.0743 0.563191 56.5217 1.31164 57.7343 2.36351C58.9468 3.41539 59.8895 4.74026 60.4837 6.2279C61.249 8.20818 61.249 9.00029 60.7822 15.322L60.017 25.985L59.7644 29.7932H62.7488C65.0686 29.5484 67.4059 30.0532 69.4151 31.2328C71.4244 32.4124 72.9989 34.2042 73.9059 36.3434C74.2273 37.8667 74.3038 37.8667 77.0433 36.6861C79.4645 35.6371 82.1896 35.5151 84.6956 36.3434C90.2742 38.7147 95.4399 41.9512 100 45.9325C103.888 49.1543 104.232 49.6493 103.559 50.8908C102.885 52.1323 101.691 52.0561 99.6252 50.2967C94.6122 45.1048 88.2229 41.4339 81.1985 39.7099C75.1762 39.7099 65.1287 47.075 49.9006 62.8106C46.4112 66.3827 45.6612 66.7483 42.3555 66.3522C40.7179 66.1542 39.0803 65.9638 37.4427 65.781C33.7019 65.4675 29.9543 66.3025 26.7049 68.1736C23.4554 70.0447 20.8601 72.862 19.2685 76.246C18.6602 77.3742 18.1482 78.5513 17.738 79.7648C22.0652 80.3829 26.4416 80.5895 30.8081 80.3818C45.0032 80.5341 44.7277 80.4808 47.9952 83.4284C49.9848 85.2639 50.7271 86.9015 51.8979 92.233C52.1975 93.8381 52.6405 95.4133 53.2217 96.94C53.4207 97.138 64.0268 97.237 76.7755 97.1837L99.9849 97.039L100.612 94.5103L101.753 89.7043C102.08 87.9278 102.805 86.2474 103.874 84.7878C104.943 83.3282 106.329 82.1269 107.928 81.2729C112.498 80.2179 117.21 79.9168 121.878 80.3818C133.357 80.2599 134.328 80.138 134.328 79.4678C134.328 78.5234 132.706 76.7411 130.839 75.4235C128.563 74.1303 125.991 73.4405 123.37 73.4203C121.978 73.4203 121.373 73.0471 119.544 71.1887C118.524 70.1275 117.527 69.0282 116.552 67.8908C114.665 65.5043 112.657 63.2193 110.53 61.036C107.538 57.8142 107.369 57.5629 107.966 56.4661C108.64 55.2246 110.078 55.2703 111.349 56.5879C114.585 59.9849 117.325 63.0315 119.843 66.1542L122.705 69.6273L125.819 69.9701C128.335 70.1699 130.754 71.018 132.841 72.4309C134.927 73.8438 136.608 75.7728 137.718 78.0283L138.92 80.3132H144.445C149.87 80.3132 149.977 80.3132 151.47 81.6537C152.962 82.9942 153 83.0628 153 86.9091C153 90.3746 152.878 90.9458 151.929 91.9359C151.219 92.6352 150.334 93.1323 149.365 93.3755C147.896 93.6268 147.835 93.7258 147.123 97.4198L145.501 105.288C145.003 107.519 143.97 112.599 143.205 116.514C142.317 121.044 141.371 125.563 140.366 130.072C140.18 132.451 139.318 134.728 137.879 136.637C135.66 139.12 138.376 139.021 76.3699 138.99C39.3175 138.99 18.4497 138.792 17.7304 138.495L17.7763 138.533ZM135.216 134.344C135.796 132.983 136.215 131.56 136.463 130.102L137.634 124.824C138.399 121.48 139.876 114.245 141.246 107.375C142.616 100.687 143.182 97.8311 143.833 94.8607L144.085 93.5963L129.492 93.7182C117.042 93.8172 114.846 93.9391 114.547 94.5408C113.668 96.8886 113.002 99.3102 112.558 101.776C112.331 103.294 111.783 104.747 110.949 106.038C110.115 107.329 109.015 108.428 107.721 109.263L105.602 110.619H47.4442L45.3245 109.286C42.5621 107.55 41.2153 105.067 39.8761 99.3848C39.5679 97.5861 38.9792 95.8463 38.1314 94.2285C36.4071 93.6604 34.5824 93.4581 32.7748 93.6344C27.2957 93.6344 26.3009 93.3831 25.8035 92.1492C25.8008 91.7815 25.8904 91.4189 26.0641 91.0944C26.2378 90.7699 26.4902 90.4937 26.7983 90.2908C27.7931 89.5291 28.4895 89.4225 32.9737 89.6205C40.8939 89.9176 41.8657 90.6868 43.7558 98.2957C44.257 100.437 44.8908 102.546 45.6536 104.61C46.8933 106.895 47.2682 106.971 76.8291 106.971C107.209 106.971 106.673 107.017 108.05 104.046C108.657 102.533 109.141 100.975 109.497 99.3848C111.119 92.3701 112.037 90.9534 115.619 89.9633C116.613 89.7195 123.761 89.4682 133.349 89.4682H149.419V83.9615H130.456C110.139 83.9615 109.596 84.0148 107.553 86.2921C106.284 88.0449 105.462 90.0785 105.158 92.2178C103.865 97.793 103.513 98.7146 102.219 99.8342L100.85 100.969H52.5407L51.1479 99.8037C49.8318 98.8136 49.5333 98.0748 48.2324 92.3701C47.9338 90.2146 47.0943 88.1688 45.7913 86.4216C43.9012 84.19 43.3503 84.19 23.0564 84.19H4.08633V89.7196H10.3076C17.1105 89.7196 18.7252 90.1689 18.7252 92.0502C18.7252 93.2917 16.9804 93.8324 12.7028 93.8324C11.4797 93.7757 10.254 93.8164 9.03736 93.9543C10.6188 102.195 12.3125 110.408 14.1185 118.594L15.5418 125.235C15.7867 126.225 16.2076 128.556 16.5596 130.391C16.7487 131.782 17.1513 133.136 17.7533 134.405C18.2507 135.03 24.8011 135.098 76.5765 135.098C122.59 135.098 134.895 134.999 135.27 134.558L135.216 134.344ZM50.4516 57.0145C53.612 53.7927 57.4228 50.0759 58.915 48.8115C61.1572 46.8998 61.5857 46.3057 61.3332 45.4908C61.0118 44.493 60.8358 44.2493 51.5994 44.2493C48.4365 44.1883 45.2812 44.229 42.1335 44.3711C42.1335 44.4701 41.3683 48.2174 40.3123 52.7035C39.2563 57.1896 38.4757 61.0817 38.4757 61.2721C38.4757 61.7748 41.0622 62.5135 43.0671 62.5897C44.5364 62.5897 45.1868 62.0946 50.4669 56.7631" fill="black"/>
<path d="M135.216 134.344C135.796 132.983 136.215 131.56 136.463 130.102L137.634 124.824C138.399 121.48 139.876 114.245 141.246 107.375C142.616 100.687 143.182 97.8311 143.833 94.8607L144.085 93.5963L129.492 93.7182C117.042 93.8172 114.846 93.9391 114.547 94.5408C113.668 96.8886 113.002 99.3102 112.558 101.776C112.331 103.294 111.783 104.747 110.949 106.038C110.115 107.329 109.015 108.428 107.721 109.263L105.602 110.619H47.4442L45.3245 109.286C42.5621 107.55 41.2153 105.067 39.8761 99.3848C39.5679 97.5861 38.9792 95.8463 38.1314 94.2285C36.4071 93.6604 34.5824 93.4581 32.7748 93.6344C27.2957 93.6344 26.3009 93.3831 25.8035 92.1492C25.8008 91.7815 25.8904 91.4189 26.0641 91.0944C26.2378 90.7699 26.4902 90.4937 26.7983 90.2908C27.7931 89.5291 28.4895 89.4225 32.9737 89.6205C40.8939 89.9176 41.8657 90.6868 43.7558 98.2957C44.257 100.437 44.8908 102.546 45.6536 104.61C46.8933 106.895 47.2682 106.971 76.8291 106.971C107.209 106.971 106.673 107.017 108.05 104.046C108.657 102.533 109.141 100.975 109.497 99.3848C111.119 92.3701 112.037 90.9534 115.619 89.9633C116.613 89.7195 123.761 89.4682 133.349 89.4682H149.419V83.9615H130.456C110.139 83.9615 109.596 84.0148 107.553 86.2921C106.284 88.0449 105.462 90.0785 105.158 92.2178C103.865 97.793 103.513 98.7146 102.219 99.8342L100.85 100.969H52.5407L51.1479 99.8037C49.8318 98.8136 49.5333 98.0748 48.2324 92.3701C47.9338 90.2146 47.0943 88.1688 45.7913 86.4216C43.9012 84.19 43.3503 84.19 23.0564 84.19H4.08633V89.7196H10.3076C17.1105 89.7196 18.7252 90.1689 18.7252 92.0502C18.7252 93.2917 16.9804 93.8324 12.7028 93.8324C11.4797 93.7757 10.254 93.8164 9.03736 93.9543C10.6188 102.195 12.3125 110.408 14.1185 118.594L15.5418 125.235C15.7867 126.225 16.2076 128.556 16.5596 130.391C16.7487 131.782 17.1513 133.136 17.7533 134.405C18.2507 135.03 24.8011 135.098 76.5765 135.098C122.59 135.098 134.895 134.999 135.27 134.558L135.216 134.344Z" fill="#EEB8B9"/>
</svg>
