<svg width="31" height="30" viewBox="0 0 31 30" fill="none" xmlns="http://www.w3.org/2000/svg">
<path fill-rule="evenodd" clip-rule="evenodd" d="M10.8677 3.42889L9.05639 9.52222C9.05639 9.52222 7.73225 14.1133 7.18533 18.6022C7.10787 19.368 7.06649 20.137 7.06133 20.9067C7.06133 23.8622 8.00682 25.2711 9.27118 26.0533C10.6883 26.9333 12.7919 27.2222 15.4999 27.2222C18.2058 27.2222 20.3138 26.9333 21.7287 26.0533C22.9931 25.2689 23.9385 23.8622 23.9385 20.9067C23.9385 20.1733 23.8943 19.3956 23.8123 18.6C23.2676 14.1111 21.9435 9.52222 21.9435 9.52222L20.1322 3.42889C18.6216 3.01709 17.0652 2.79832 15.4999 2.77778C14.1714 2.77778 12.4952 2.98667 10.8677 3.42889ZM26.7064 20.9067C26.7064 20.2963 26.6813 19.6763 26.6311 19.0467L26.6222 18.9378L26.8215 18.8956C28.387 18.5444 29.534 17.7378 30.2271 16.58C30.4426 16.2224 30.6115 15.8385 30.7297 15.4378C31.1372 14.1044 31.0397 12.6244 30.7297 11.2644C30.3433 9.66607 29.7232 8.13391 28.8897 6.71778C28.1036 5.36 27.1559 4.12889 26.2126 3.33556C24.7778 2.12444 22.8558 1.30222 20.9781 0.777778C19.1926 0.285002 17.3516 0.0236189 15.4999 0C13.6482 0.0243432 11.8072 0.286474 10.0218 0.78C8.14411 1.30222 6.22212 2.12444 4.78727 3.33556C3.84398 4.12889 2.89627 5.35778 2.11021 6.71778C1.27744 8.13404 0.658114 9.66619 0.272356 11.2644C0.0996385 11.998 0.00829784 12.7485 0 13.5022C0 14.3622 0.135071 15.2156 0.47607 16C1.13371 17.5222 2.45563 18.5622 4.37763 18.9378V18.9422L4.36877 19.0422V19.0467C4.31858 19.6763 4.29348 20.2963 4.29348 20.9067C4.29348 24.5556 5.53126 27 7.81418 28.4178C9.94432 29.7378 12.7498 30 15.4999 30C18.2501 30 21.0556 29.7378 23.1835 28.4178C25.4686 27 26.7064 24.5556 26.7064 20.9067ZM11.6847 11.8333C12.4487 11.8333 13.0687 12.4556 13.0687 13.2222V14.3111C13.0687 14.6795 12.9229 15.0327 12.6633 15.2932C12.4038 15.5537 12.0518 15.7 11.6847 15.7C11.3177 15.7 10.9657 15.5537 10.7062 15.2932C10.4466 15.0327 10.3008 14.6795 10.3008 14.3111V13.2222C10.3008 12.4556 10.9208 11.8333 11.6847 11.8333ZM19.3174 11.8333C20.0813 11.8333 20.7013 12.4556 20.7013 13.2222V14.3111C20.7013 14.6795 20.5555 15.0327 20.2959 15.2932C20.0364 15.5537 19.6844 15.7 19.3174 15.7C18.9503 15.7 18.5983 15.5537 18.3388 15.2932C18.0792 15.0327 17.9334 14.6795 17.9334 14.3111V13.2222C17.9334 12.4556 18.5534 11.8333 19.3174 11.8333ZM12.9092 20.9111C13.3144 21.84 14.1404 22.5489 14.6098 22.86C15.1434 23.2156 15.8564 23.2156 16.3901 22.86C16.8595 22.5489 17.6876 21.8378 18.0906 20.9111C18.1863 20.6895 18.2268 20.4479 18.2087 20.2071C18.1905 19.9663 18.1143 19.7335 17.9866 19.5289C17.7884 19.2158 17.4853 18.9841 17.1319 18.8756C16.7709 18.7644 16.193 18.6444 15.4999 18.6444C14.8069 18.6444 14.2289 18.7644 13.868 18.8756C13.5146 18.9841 13.2115 19.2158 13.0133 19.5289C12.8856 19.7335 12.8093 19.9663 12.7912 20.2071C12.7731 20.4479 12.8136 20.6895 12.9092 20.9111Z" fill="white"/>
</svg>
