<svg width="37" height="26" viewBox="0 0 37 26" fill="none" xmlns="http://www.w3.org/2000/svg">
<path fill-rule="evenodd" clip-rule="evenodd" d="M18.5133 2.43707C15.9645 2.43707 15.7096 2.7092 14.3904 2.7092C13.2917 2.7092 9.99203 0 8.34393 0C6.69582 0 4.77044 0.975867 4.77044 3.79253V7.04253C4.77389 7.89533 5.08043 10.5092 6.28595 9.81067C4.86172 11.5059 4.71878 13.4836 4.73772 15.3972C4.35368 15.5081 3.96275 15.6347 3.58215 15.7647C2.4042 16.1703 1.15391 16.6868 0.590762 17.0543C0.303013 17.2414 0.100895 17.5359 0.0288734 17.8729C-0.0431484 18.21 0.020825 18.5621 0.20672 18.8517C0.392616 19.1414 0.685205 19.3448 1.02012 19.4173C1.35504 19.4898 1.70485 19.4254 1.9926 19.2383C2.26126 19.0632 3.23428 18.6316 4.4174 18.2243L4.81005 18.0943C4.88927 18.8448 5.08732 19.5329 5.38181 20.1569L5.34048 20.1795C4.63439 20.5539 3.97997 20.9855 3.56321 21.2593L3.36861 21.3876C3.08086 21.5747 2.87874 21.8692 2.80672 22.2063C2.7347 22.5434 2.79867 22.8954 2.98456 23.1851C3.17046 23.4747 3.46305 23.6781 3.79797 23.7506C4.13288 23.8231 4.48269 23.7587 4.77044 23.5716L4.99605 23.4225C5.41798 23.1452 5.95873 22.7899 6.54771 22.4779C6.68549 22.4039 6.81809 22.3369 6.94553 22.2768C9.92487 25.09 15.2756 26 18.5133 26C21.7509 26 27.1017 25.09 30.081 22.2768C30.2073 22.3369 30.3399 22.4039 30.4789 22.4779C31.0678 22.7899 31.6086 23.1452 32.0305 23.4225L32.2561 23.5716C32.5439 23.7587 32.8937 23.8231 33.2286 23.7506C33.5635 23.6781 33.8561 23.4747 34.042 23.1851C34.2279 22.8954 34.2919 22.5434 34.2198 22.2063C34.1478 21.8692 33.9457 21.5747 33.658 21.3876L33.4634 21.2593C32.8878 20.8719 32.2948 20.5116 31.6861 20.1795L31.6448 20.1569C31.9392 19.5329 32.1373 18.8448 32.2165 18.0943L32.6092 18.2243C33.7923 18.6316 34.7653 19.0632 35.0357 19.2383C35.3233 19.4149 35.6681 19.4714 35.9965 19.3957C36.325 19.3201 36.611 19.1183 36.7937 18.8333C36.9763 18.5484 37.0412 18.2029 36.9743 17.8705C36.9074 17.5382 36.7142 17.2452 36.4358 17.0543C35.8727 16.6868 34.6224 16.1703 33.4461 15.7647C33.0631 15.6331 32.6773 15.51 32.2888 15.3955C32.3095 13.4819 32.1648 11.5059 30.7389 9.81067C31.9444 10.5092 32.2544 7.89533 32.2561 7.0408V3.79253C32.2561 0.975867 30.3325 0 28.6826 0C27.0345 0 23.7349 2.7092 22.6379 2.7092C21.317 2.7092 21.0621 2.43707 18.5133 2.43707ZM17.3508 18.3733C17.6987 18.2537 18.1103 18.2 18.5133 18.2C18.9163 18.2 19.3279 18.2537 19.6775 18.3733C19.8497 18.4323 20.0563 18.5259 20.2423 18.6749C20.3698 18.7718 20.474 18.8962 20.5473 19.039C20.6206 19.1818 20.6612 19.3393 20.666 19.5C20.666 19.8987 20.4266 20.176 20.2423 20.3251C20.0581 20.4741 19.848 20.5677 19.6775 20.6267C19.3279 20.7463 18.9163 20.8 18.5133 20.8C18.1103 20.8 17.6987 20.7463 17.3508 20.6267C17.1463 20.5593 16.9547 20.4573 16.7842 20.3251C16.6568 20.2282 16.5526 20.1038 16.4793 19.961C16.406 19.8182 16.3654 19.6607 16.3606 19.5C16.3606 19.1013 16.6 18.824 16.7842 18.6749C16.9685 18.5259 17.1803 18.4323 17.3508 18.3733ZM22.2504 13C22.4863 12.6048 22.9496 12.1333 23.6453 12.1333C24.3411 12.1333 24.8061 12.6048 25.0403 13C25.2848 13.4143 25.4019 13.9135 25.4019 14.4092C25.4019 14.9049 25.2848 15.4024 25.0403 15.8149C24.8061 16.2119 24.3411 16.6833 23.6453 16.6833C22.9496 16.6833 22.4863 16.2119 22.2504 15.8167C22.0076 15.3882 21.8828 14.9024 21.8887 14.4092C21.8887 13.9135 22.0058 13.4143 22.2504 13.0017M11.9863 13.0017C12.2222 12.6065 12.6855 12.1351 13.3812 12.1351C14.077 12.1351 14.542 12.6065 14.7762 13.0017C15.0207 13.416 15.1378 13.9152 15.1378 14.4109C15.1378 14.9067 15.0207 15.4041 14.7762 15.8167C14.542 16.2136 14.077 16.6851 13.3812 16.6851C12.6855 16.6851 12.2222 16.2136 11.9863 15.8184C11.7435 15.39 11.6187 14.9041 11.6246 14.4109C11.6246 13.9152 11.7417 13.4143 11.9863 13.0017Z" fill="white"/>
</svg>
