<svg width="39" height="27" viewBox="0 0 39 27" fill="none" xmlns="http://www.w3.org/2000/svg">
<path d="M26.3845 0.842751L36.9655 11.3284C38.2684 12.6211 39 14.3719 39 16.1971C39 18.0223 38.2684 19.7731 36.9655 21.0658C36.128 21.8963 35.0892 22.5008 33.9483 22.8215C32.8074 23.1423 31.6025 23.1686 30.4484 22.8979V23.1371C30.4492 23.6441 30.3489 24.1463 30.1532 24.6149C29.9575 25.0835 29.6704 25.5094 29.3081 25.8682C28.9459 26.227 28.5157 26.5116 28.0421 26.7058C27.5686 26.9 27.0609 27 26.5483 27H22.4336L22.4356 25.5574L22.4258 25.2334C22.3476 23.9423 21.795 22.724 20.8721 21.8076C19.9491 20.8913 18.7193 20.34 17.4141 20.2577L17.0748 20.2461H15.1247L14.9278 20.2596C14.5772 20.3073 14.256 20.4789 14.0234 20.7427C13.7909 21.0064 13.6628 21.3445 13.6628 21.6945C13.6628 22.0444 13.7909 22.3826 14.0234 22.6463C14.256 22.9101 14.5772 23.0817 14.9278 23.1294L15.1267 23.1429H17.0768L17.3244 23.1564C17.8821 23.2134 18.4028 23.4588 18.7988 23.8512C19.1949 24.2436 19.4421 24.759 19.4988 25.3106L19.5124 25.5574L19.5105 27H9.76011C9.24777 26.9995 8.74055 26.8992 8.26743 26.7047C7.79431 26.5103 7.36457 26.2256 7.00274 25.8669C6.64092 25.5081 6.35411 25.0824 6.15869 24.614C5.96328 24.1456 5.8631 23.6438 5.86387 23.1371V18.3079C5.86387 17.9402 5.88597 17.5789 5.93017 17.2241C5.59086 17.3012 5.23854 17.3398 4.87323 17.3398C4.23285 17.3395 3.59879 17.2145 3.00728 16.9718C2.41577 16.7292 1.87839 16.3737 1.42584 15.9256C0.973297 15.4775 0.61445 14.9456 0.3698 14.3603C0.125151 13.775 -0.000506115 13.1478 6.24142e-06 12.5145C-0.00101895 11.8808 0.12426 11.2532 0.368679 10.6675C0.613099 10.0817 0.971865 9.54941 1.42446 9.10091C1.87706 8.6524 2.41461 8.29653 3.00638 8.05363C3.59815 7.81074 4.23252 7.68558 4.87323 7.68533C5.93797 7.68598 6.97321 8.03134 7.8208 8.66864C8.66838 9.30594 9.2817 10.2001 9.56705 11.2146C11.0461 10.1713 12.8185 9.61216 14.6353 9.61583H21.677C22.8529 9.61583 23.9761 9.84726 25.0019 10.2619C25.3292 9.71785 25.7199 9.21362 26.166 8.75955L22.2815 4.91204C21.7368 4.37192 21.4309 3.64022 21.4309 2.8774C21.4309 2.11457 21.7368 1.38287 22.2815 0.842751C22.5507 0.575624 22.8706 0.363677 23.2228 0.21906C23.575 0.0744425 23.9526 0 24.334 0C24.7153 0 25.0929 0.0744425 25.4451 0.21906C25.7973 0.363677 26.1172 0.575624 26.3864 0.842751" fill="white"/>
</svg>
